<mxfile host="app.diagrams.net" modified="2022-07-01T02:46:44.482Z" agent="5.0 (Macintosh; Intel Mac OS X 10_15_7) AppleWebKit/537.36 (KHTML, like Gecko) Chrome/103.0.0.0 Safari/537.36" etag="7E4vHGmUdc39foviwmL3" version="20.0.4" type="github">
  <diagram id="UyqvvP082r0-mRgfUKKG" name="Page-1">
    <mxGraphModel dx="864" dy="1650" grid="1" gridSize="10" guides="1" tooltips="1" connect="1" arrows="1" fold="1" page="1" pageScale="1" pageWidth="827" pageHeight="1169" math="0" shadow="0">
      <root>
        <mxCell id="0" />
        <mxCell id="1" parent="0" />
        <mxCell id="jZVrYAwqoXnEjr_fndT7-1" value="" style="rounded=1;whiteSpace=wrap;html=1;strokeWidth=2;fillWeight=4;hachureGap=8;hachureAngle=45;fillColor=#1ba1e2;sketch=1;" vertex="1" parent="1">
          <mxGeometry x="360" y="320" width="120" height="60" as="geometry" />
        </mxCell>
        <mxCell id="jZVrYAwqoXnEjr_fndT7-2" value="database" style="strokeWidth=2;html=1;shape=mxgraph.flowchart.database;whiteSpace=wrap;" vertex="1" parent="1">
          <mxGeometry x="610" y="410" width="60" height="60" as="geometry" />
        </mxCell>
        <mxCell id="jZVrYAwqoXnEjr_fndT7-3" value="" style="shape=ext;double=1;rounded=1;whiteSpace=wrap;html=1;" vertex="1" parent="1">
          <mxGeometry x="180" y="30" width="535" height="250" as="geometry" />
        </mxCell>
        <mxCell id="jZVrYAwqoXnEjr_fndT7-6" value="L3" style="shape=ext;double=1;rounded=1;whiteSpace=wrap;html=1;fillColor=#99FF33;" vertex="1" parent="1">
          <mxGeometry x="220" y="210" width="460" height="60" as="geometry" />
        </mxCell>
        <mxCell id="jZVrYAwqoXnEjr_fndT7-7" value="CPU" style="text;html=1;align=center;verticalAlign=middle;resizable=0;points=[];autosize=1;strokeColor=none;fillColor=none;" vertex="1" parent="1">
          <mxGeometry x="215" y="-5" width="50" height="30" as="geometry" />
        </mxCell>
        <mxCell id="jZVrYAwqoXnEjr_fndT7-8" value="" style="shape=ext;double=1;whiteSpace=wrap;html=1;aspect=fixed;fillColor=#FFFF33;" vertex="1" parent="1">
          <mxGeometry x="240" y="70" width="80" height="80" as="geometry" />
        </mxCell>
        <mxCell id="jZVrYAwqoXnEjr_fndT7-9" value="" style="shape=ext;double=1;whiteSpace=wrap;html=1;aspect=fixed;fillColor=#FFFF33;" vertex="1" parent="1">
          <mxGeometry x="570" y="70" width="80" height="80" as="geometry" />
        </mxCell>
        <mxCell id="jZVrYAwqoXnEjr_fndT7-10" value="" style="shape=ext;double=1;whiteSpace=wrap;html=1;aspect=fixed;fillColor=#FFFF33;" vertex="1" parent="1">
          <mxGeometry x="410" y="70" width="80" height="80" as="geometry" />
        </mxCell>
      </root>
    </mxGraphModel>
  </diagram>
</mxfile>
